<?xml version="1.0" standalone="no"?>
<!DOCTYPE svg PUBLIC "-//W3C//DTD SVG 20010904//EN"
 "http://www.w3.org/TR/2001/REC-SVG-20010904/DTD/svg10.dtd">
<svg version="1.0" xmlns="http://www.w3.org/2000/svg"
 width="301.000000pt" height="301.000000pt" viewBox="0 0 301.000000 301.000000"
 preserveAspectRatio="xMidYMid meet">
<metadata>
Created by potrace 1.14, written by Peter Selinger 2001-2017
</metadata>
<g transform="translate(0.000000,301.000000) scale(0.100000,-0.100000)"
fill="#000000" stroke="none">
<path d="M1330 2625 l0 -35 -105 0 -105 0 0 -35 c0 -33 -2 -35 -35 -35 -33 0
-35 -2 -35 -35 0 -33 -2 -35 -35 -35 l-35 0 0 -70 0 -70 -35 0 -35 0 0 -315 0
-315 35 0 35 0 0 -420 0 -420 -245 0 -245 0 0 -70 0 -70 -105 0 -105 0 0 -350
0 -350 1190 0 1190 0 0 350 0 350 -105 0 -105 0 0 70 0 70 -245 0 -245 0 0
140 0 140 35 0 c33 0 35 -2 35 -35 0 -33 2 -35 35 -35 33 0 35 2 35 35 l0 35
70 0 70 0 0 35 0 35 70 0 70 0 0 140 0 140 -35 0 c-33 0 -35 2 -35 35 0 33 2
35 35 35 33 0 35 2 35 35 0 33 -2 35 -35 35 l-35 0 0 70 0 70 35 0 35 0 0 140
0 140 -35 0 -35 0 0 105 0 105 35 0 35 0 0 105 0 105 -35 0 c-33 0 -35 2 -35
35 0 33 -2 35 -35 35 -33 0 -35 2 -35 35 0 33 -2 35 -35 35 -33 0 -35 2 -35
35 0 33 -2 35 -35 35 -33 0 -35 -2 -35 -35 0 -33 -2 -35 -35 -35 -33 0 -35 2
-35 35 l0 35 -350 0 -350 0 0 -35z"/>
</g>
</svg>
